HIERARCHY
ROOT Hips
{
	OFFSET -0.001795 -0.223333 0.028219
	CHANNELS 6 Xposition Yposition Zposition Zrotation Yrotation Xrotation 
	JOINT LeftUpLeg
	{
		OFFSET 0.069520 -0.091406 -0.006815
		CHANNELS 3 Zrotation Yrotation Xrotation
		JOINT LeftLeg
		{
			OFFSET 0.034277 -0.375199 -0.004496
			CHANNELS 3 Zrotation Yrotation Xrotation
			JOINT LeftFoot
			{
				OFFSET -0.013596 -0.397961 -0.043693
				CHANNELS 3 Zrotation Yrotation Xrotation
				JOINT LeftToe
				{
					OFFSET 0.026358 -0.055791 0.119288
					CHANNELS 3 Zrotation Yrotation Xrotation
					End Site
					{
						OFFSET 0.000000 0.000000 0.000000
					}
				}
			}
		}
	}
	JOINT RightUpLeg
	{
		OFFSET -0.067670 -0.090522 -0.004320
		CHANNELS 3 Zrotation Yrotation Xrotation
		JOINT RightLeg
		{
			OFFSET -0.038290 -0.382569 -0.008850
			CHANNELS 3 Zrotation Yrotation Xrotation
			JOINT RightFoot
			{
				OFFSET 0.015774 -0.398415 -0.042312
				CHANNELS 3 Zrotation Yrotation Xrotation
				JOINT RightToe
				{
					OFFSET -0.025372 -0.048144 0.123348
					CHANNELS 3 Zrotation Yrotation Xrotation
					End Site
					{
						OFFSET 0.000000 0.000000 0.000000
					}
				}
			}
		}
	}
	JOINT Spine
	{
		OFFSET -0.002533 0.108963 -0.026696
		CHANNELS 3 Zrotation Yrotation Xrotation
		JOINT Spine1
		{
			OFFSET 0.005487 0.135180 0.001092
			CHANNELS 3 Zrotation Yrotation Xrotation
			JOINT Spine2
			{
				OFFSET 0.001457 0.052922 0.025425
				CHANNELS 3 Zrotation Yrotation Xrotation
				JOINT Neck
				{
					OFFSET -0.002778 0.213870 -0.042857
					CHANNELS 3 Zrotation Yrotation Xrotation
					JOINT Head
					{
						OFFSET 0.005152 0.064970 0.051349
						CHANNELS 3 Zrotation Yrotation Xrotation
						End Site
						{
							OFFSET 0.000000 0.000000 0.000000
						}
					}
				}
				JOINT LeftShoulder
				{
					OFFSET 0.078845 0.121749 -0.034090
					CHANNELS 3 Zrotation Yrotation Xrotation
					JOINT LeftArm
					{
						OFFSET 0.090977 0.030469 -0.008868
						CHANNELS 3 Zrotation Yrotation Xrotation
						JOINT LeftForeArm
						{
							OFFSET 0.259612 -0.012772 -0.027456
							CHANNELS 3 Zrotation Yrotation Xrotation
							JOINT LeftHand
							{
								OFFSET 0.249234 0.008986 -0.001171
								CHANNELS 3 Zrotation Yrotation Xrotation
								End Site
								{
									OFFSET 0.000000 0.000000 0.000000
								}
							}
						}
					}
				}
				JOINT RightShoulder
				{
					OFFSET -0.081759 0.118833 -0.038615
					CHANNELS 3 Zrotation Yrotation Xrotation
					JOINT RightArm
					{
						OFFSET -0.096012 0.032551 -0.009143
						CHANNELS 3 Zrotation Yrotation Xrotation
						JOINT RightForeArm
						{
							OFFSET -0.253742 -0.013329 -0.021401
							CHANNELS 3 Zrotation Yrotation Xrotation
							JOINT RightHand
							{
								OFFSET -0.255298 0.007772 -0.005559
								CHANNELS 3 Zrotation Yrotation Xrotation
								End Site
								{
									OFFSET 0.000000 0.000000 0.000000
								}
							}
						}
					}
				}
			}
		}
	}
}
MOTION
Frames: 11
Frame Time: 0.050000
-1.070068 0.903763 1.891383 179.099818 23.079374 177.492152 1.469436 -8.568105 -25.802070 -26.032265 -19.177382 27.940627 65.832003 -39.098133 52.261423 0.000000 0.000000 0.000000 -3.329564 -9.291694 8.613916 -33.610928 -31.185501 46.938817 47.406554 8.976119 7.876061 0.000000 0.000000 0.000000 -13.179467 -7.437887 20.063016 -7.237757 -11.968720 -2.500022 15.417945 27.523098 18.628524 -6.675430 -12.633854 -28.767470 0.000000 0.000000 0.000000 -9.411159 -29.730854 -73.045102 -39.605336 47.197252 -7.784433 -16.730736 -24.994925 0.090823 0.000000 0.000000 0.000000 8.015767 1.467124 69.822560 -7.363473 75.657356 -6.410616 -24.431051 4.756690 -3.161768 0.000000 0.000000 0.000000 
-1.065825 0.904586 1.848776 179.504473 20.238075 176.467836 -1.041381 -6.459640 -22.670224 -26.181058 -20.432868 31.037958 71.330276 -40.262218 47.260669 0.000000 0.000000 0.000000 -4.061407 -9.061981 1.159970 -78.813582 -28.753176 80.771766 69.669995 10.220448 40.899050 0.000000 0.000000 0.000000 -14.601626 -9.133361 22.362671 -6.475574 -11.423971 -3.941176 15.634950 27.089889 20.283628 -5.688926 -13.533871 -30.114750 0.000000 0.000000 0.000000 -7.477819 -32.434581 -76.922605 -38.732437 48.905488 -6.594403 -18.494187 -25.481039 0.687847 0.000000 0.000000 0.000000 7.368427 -0.662051 74.427458 -27.378976 76.366314 -22.716061 -23.879061 3.150076 -2.883153 0.000000 0.000000 0.000000 
-1.059937 0.908541 1.810063 -179.272148 16.524412 176.562470 -2.961537 -4.009414 -18.397640 -19.318577 -18.831595 29.415255 81.620778 -39.269683 31.463655 0.000000 0.000000 0.000000 -2.363427 -9.135431 -6.689440 -107.661291 -16.564787 92.590157 80.452531 -4.557712 64.054924 0.000000 0.000000 0.000000 -14.987164 -10.851629 24.622639 -6.091128 -11.433470 -4.600637 15.567579 25.944490 20.470324 -5.442609 -15.025948 -30.529495 0.000000 0.000000 0.000000 -5.550279 -32.665205 -80.610299 -38.223276 48.620147 -6.048220 -20.512214 -26.487063 1.420330 0.000000 0.000000 0.000000 4.140387 -0.930061 80.147801 -55.477888 76.411382 -43.985608 -23.852281 -1.107644 -2.136070 0.000000 0.000000 0.000000 
-1.052641 0.915276 1.772525 -177.824837 13.025493 176.494441 -2.734625 -2.506864 -13.665755 -12.872910 -15.987185 25.116767 92.254346 -39.500647 17.177975 0.000000 0.000000 0.000000 0.579546 -9.929407 -13.477089 -112.788890 -14.714259 92.663976 85.542481 -11.815597 66.874542 0.000000 0.000000 0.000000 -16.170656 -13.090027 27.497600 -4.982675 -10.885230 -5.964398 16.352542 25.602598 21.875381 -5.296022 -17.167034 -31.765521 0.000000 0.000000 0.000000 -1.787837 -33.520417 -86.038491 -37.909074 49.560122 -6.215677 -23.429108 -28.053922 2.216752 0.000000 0.000000 0.000000 1.386744 -2.188516 88.647569 -77.877755 69.221388 -56.345778 -23.247112 -5.438111 -1.466344 0.000000 0.000000 0.000000 
-1.044459 0.922691 1.734908 -176.788239 10.336921 177.099086 -2.438497 -2.093746 -9.918165 -9.480846 -14.118074 22.501792 95.336120 -35.843119 9.007386 0.000000 0.000000 0.000000 4.355882 -11.482004 -19.904291 -94.479275 -23.653254 84.541777 86.344447 -6.181665 50.175598 0.000000 0.000000 0.000000 -16.461285 -14.262955 28.862520 -5.456535 -12.493058 -4.935796 17.009190 27.285551 21.799586 -5.413761 -18.987810 -31.985991 0.000000 0.000000 0.000000 2.222343 -34.429234 -89.466706 -38.348829 48.778716 -7.146742 -27.896422 -30.852244 3.542800 0.000000 0.000000 0.000000 -0.637178 -2.402864 95.612539 -88.328453 62.206081 -58.416637 -23.420115 -9.389700 -1.105014 0.000000 0.000000 0.000000 
-1.035972 0.926715 1.696963 -175.856441 6.324981 176.989762 -1.313557 -2.681615 -7.437378 -9.459636 -14.392187 22.748960 100.346405 -36.880127 5.013965 0.000000 0.000000 0.000000 8.146001 -13.059658 -24.504699 -67.685391 -30.461445 67.491039 85.550079 -7.915844 31.418395 0.000000 0.000000 0.000000 -18.422303 -17.229415 32.024556 -7.190535 -13.830635 -4.268489 20.378917 30.627913 23.207572 -3.544463 -20.764597 -32.947159 0.000000 0.000000 0.000000 9.169349 -34.768697 -102.592554 -33.171497 55.622444 -6.435732 -33.572061 -31.298886 4.491006 0.000000 0.000000 0.000000 -9.627493 -2.909156 114.251639 -100.224542 43.480384 -42.938986 -19.373093 -20.842267 -0.534904 0.000000 0.000000 0.000000 
-1.027562 0.926404 1.657681 -175.681245 3.045041 177.804804 -1.197042 -3.012548 -6.623390 -9.016632 -14.689611 22.944318 103.158020 -38.554431 1.758406 0.000000 0.000000 0.000000 11.138988 -15.359338 -28.475994 -37.957930 -27.872598 44.316390 88.279134 -13.353423 14.826070 0.000000 0.000000 0.000000 -18.170652 -18.048882 32.896141 -7.878923 -15.400515 -3.919631 21.326154 31.245362 23.872091 -3.798667 -23.701881 -34.429793 0.000000 0.000000 0.000000 15.960573 -36.115492 -113.845243 -23.803878 61.547135 -2.060166 -38.453332 -30.522907 4.653527 0.000000 0.000000 0.000000 -17.319658 0.815224 135.359847 -103.320887 20.323873 -16.965973 -7.288309 -30.119914 -3.692366 0.000000 0.000000 0.000000 
-1.019508 0.921810 1.615789 -176.179425 -0.129869 177.951379 -2.628628 5.818610 -7.781475 25.116965 26.462937 32.812386 -155.118758 23.032576 -27.268227 0.000000 0.000000 0.000000 -1.577269 11.875485 -26.977502 18.944554 18.853168 22.143631 -117.050346 71.601862 6.527924 0.000000 0.000000 0.000000 9.667419 20.589889 36.365265 21.037952 22.090282 -7.253901 -26.390157 -48.171408 24.204623 -1.142355 -21.034579 -35.748630 0.000000 0.000000 0.000000 18.117815 -38.034300 -113.131056 -24.418914 60.527233 -9.762627 -43.645835 -28.375841 1.923298 0.000000 0.000000 0.000000 -22.537760 7.065173 155.176041 -103.063561 -3.514660 16.730261 13.550353 -29.006452 -10.362707 0.000000 0.000000 0.000000 
-1.012683 0.914892 1.571005 -176.738372 -2.648183 177.449799 -2.655886 6.194760 -9.394642 39.061662 30.763485 44.533728 -144.477441 34.492345 -16.972277 0.000000 0.000000 0.000000 -0.762051 12.018163 -27.694041 15.920568 17.060599 21.936804 -99.017312 67.664526 19.625756 0.000000 0.000000 0.000000 12.503984 21.592046 38.751561 21.563721 21.773356 -8.132649 -29.383914 -49.226146 26.132835 2.313952 20.054191 -33.804920 0.000000 0.000000 0.000000 18.892634 -38.588498 -111.513620 -29.730172 60.119776 -21.789694 -45.336038 -23.192516 2.201841 0.000000 0.000000 0.000000 -25.093475 12.792722 170.566484 -100.174248 -25.248098 42.967725 25.063249 -17.173487 -12.487188 0.000000 0.000000 0.000000 
-1.008305 0.904463 1.525367 -177.058547 -5.876424 177.901649 -2.463761 10.004423 -16.028290 71.600121 31.167045 68.285944 -119.528707 52.632740 15.188920 0.000000 0.000000 0.000000 -2.729379 14.583877 -30.958089 23.712836 20.581194 29.016173 -69.066749 64.637877 52.255703 0.000000 0.000000 0.000000 15.399338 21.749114 40.612632 22.902656 22.277782 -7.454969 -30.848156 -49.688654 23.909994 2.546799 18.962775 -32.486013 0.000000 0.000000 0.000000 21.687908 -34.220963 -141.748466 41.850694 66.745848 23.492652 -51.972719 2.685012 -12.174101 0.000000 0.000000 0.000000 -26.896089 26.739631 -151.727871 -83.031487 -66.857807 68.275044 27.176125 3.289741 -6.884539 0.000000 0.000000 0.000000 
-1.005941 0.894037 1.481560 -177.050321 -7.997574 177.569358 -4.059136 17.302024 -25.245706 105.211630 21.265623 80.195258 -74.648522 52.580396 67.063805 0.000000 0.000000 0.000000 -2.201916 13.471943 -30.063238 29.584874 22.965068 33.495436 -65.744848 70.059222 64.356778 0.000000 0.000000 0.000000 19.672312 22.974111 43.524803 24.393024 22.152621 -6.831267 -33.675851 -51.999640 23.667345 1.135020 16.931037 -31.688629 0.000000 0.000000 0.000000 19.769138 -22.700007 179.899881 82.942642 34.940757 27.724707 -37.138154 32.793253 -22.653231 0.000000 0.000000 0.000000 -23.301417 37.705004 -125.057791 19.225691 -73.840030 -9.195052 18.763065 13.072092 -3.938123 0.000000 0.000000 0.000000 
